<?xml version="1.0" encoding="utf-8"?>
<!-- Generator: Adobe Illustrator 18.0.0, SVG Export Plug-In . SVG Version: 6.00 Build 0)  -->
<!DOCTYPE svg PUBLIC "-//W3C//DTD SVG 1.1//EN" "http://www.w3.org/Graphics/SVG/1.1/DTD/svg11.dtd">
<svg version="1.1" id="Layer_1" xmlns="http://www.w3.org/2000/svg" xmlns:xlink="http://www.w3.org/1999/xlink" x="0px" y="0px"
	 width="1400px" height="980px" viewBox="0 0 1400 980" enable-background="new 0 0 1400 980" xml:space="preserve">
<g>
	<defs>
		<rect id="SVGID_1_" width="1400" height="980"/>
	</defs>
	<clipPath id="SVGID_2_">
		<use xlink:href="#SVGID_1_"  overflow="visible"/>
	</clipPath>
	<linearGradient id="SVGID_3_" gradientUnits="userSpaceOnUse" x1="700" y1="-58.9999" x2="700" y2="797.5984">
		<stop  offset="0" style="stop-color:#54E4F9"/>
		<stop  offset="0.2071" style="stop-color:#81E3DB"/>
		<stop  offset="0.4691" style="stop-color:#B4E3B9"/>
		<stop  offset="0.6983" style="stop-color:#D9E2A1"/>
		<stop  offset="0.883" style="stop-color:#F0E291"/>
		<stop  offset="1" style="stop-color:#F8E28C"/>
	</linearGradient>
	<rect clip-path="url(#SVGID_2_)" fill="url(#SVGID_3_)" width="1400" height="980"/>
	<g opacity="0.31" clip-path="url(#SVGID_2_)">
		<polygon fill="#D4FFF7" points="-333.5,509.9 702.7,563.5 700.9,565.1 703.8,563.6 704.5,563.6 702.9,567.4 705.4,564 
			705.8,568.6 706.3,564.4 708.8,568.4 707.4,564.4 711.5,566.7 708.3,563.8 713,564.1 706.7,562.3 706.7,562.2 706.6,562.2 
			706.6,562.1 706.7,562.1 706.7,562 1758,560.7 1722.5,331.4 711.7,559.5 1639.5,77.3 1502.5,-110 709.9,557.5 1311.9,-297.4 
			1104.1,-400.6 707.4,556.6 848.7,-479.4 616.7,-475.5 704.8,556.9 353.7,-427.9 149.5,-317.8 702.6,558.4 -62.2,-154.5 
			-192.8,37.2 701.3,560.8 -305.7,279.5 		"/>
	</g>
	<path opacity="0.71" clip-path="url(#SVGID_2_)" fill="#77C5C9" d="M1136,464.9c33.8,6.9,67.3-13.6,101.8-14.5
		c28.6-0.8,56.5,11.9,85,9.6c23.5-1.9,45.5-13.9,69-13.9c32,0,60.6,22.9,75.6,51.2s18.9,61,20.5,92.9c2,39.2,0.4,81.2-21.8,113.6
		c-21.4,31.3-57.9,48.1-93.3,61.6c-138.2,52.7-287,77.2-434.8,71.5c-107.6-4.2-214-24.1-321.5-30.4c-173.6-10.3-357.7,12.8-513-65.5
		c-46.2-23.3-87.7-54.7-129-86c-5.8-4.4-11.8-9-15.7-15.2c-5-8-6-17.8-6.5-27.2C-52,538.3-37.9,463-6.9,395.4
		c37.1,16.1,79.3,32.4,116.7,16.9c21-8.7,38.4-26.8,61-29.2c39.2-4.2,66.8,39.5,104.9,49.5c36.4,9.5,75-13.5,111.8-5.7
		c31.3,6.6,56,34.4,88,36.6c40.5,2.8,72.8-36.1,113.1-40.8c76.9-8.9,129,106.2,205.1,91.9c28.6-5.4,52.9-29.1,81.9-27.5
		c26.4,1.5,50.9,24.1,76.3,16.9c33.7-9.5,36.9-61.3,68.5-76.4c18.9-9.1,41.6-1.5,59.8,9S1115.4,460.8,1136,464.9z"/>
	<path clip-path="url(#SVGID_2_)" fill="#FFFFFF" d="M765.4,523.5c-0.8-6.7-2.4-13.4-6.2-19c-3.8-5.5-10.2-9.6-16.9-9.1
		c-7.3,0.5-13.4,6.3-16.4,13c-3,6.7-3.5,14.2-4,21.5c-5-8.3-11.8-16.1-20.9-19.5c-9.1-3.4-20.8-1.1-25.9,7.1
		c1.3-19.4-6.7-39.1-21-52.2c-5.4-4.9-12-9-19.3-9.5c-12.7-0.8-23.7,10-27.6,22.1c-3.9,12.1-2.3,25.1-0.7,37.7
		c-5.9-3.4-13.9-4.1-20.5-2.3c-6.6,1.8-11.9,9.1-9.6,15.5c-7.5-9-20.3-12.3-31.9-10.9c-11.6,1.5-22.3,7-32.2,13.4
		c-9.9,6.4-19.2,13.6-29.6,18.9c8.3,0,12.5-1.2,20.8-1.2l287.5,2.7C795.8,537.1,780.4,520.2,765.4,523.5z"/>
	<path clip-path="url(#SVGID_2_)" fill="#FFFFFF" d="M887.7,52.8c-0.3-2.7-1-5.5-2.5-7.8c-1.6-2.3-4.2-3.9-6.9-3.7
		c-3,0.2-5.5,2.6-6.7,5.3c-1.2,2.7-1.4,5.8-1.6,8.8c-2.1-3.4-4.8-6.6-8.5-8c-3.7-1.4-8.5-0.5-10.6,2.9c0.5-7.9-2.7-16-8.6-21.3
		c-2.2-2-4.9-3.7-7.9-3.9c-5.2-0.3-9.7,4.1-11.3,9c-1.6,4.9-0.9,10.3-0.3,15.4c-2.4-1.4-5.7-1.7-8.4-0.9c-2.7,0.7-4.9,3.7-3.9,6.3
		c-3.1-3.7-8.3-5-13.1-4.4c-4.8,0.6-9.1,2.9-13.2,5.5c-4,2.6-7.8,5.6-12.1,7.7c3.4,0,5.1-0.5,8.5-0.5l117.6,1.1
		C900.2,58.4,893.9,51.5,887.7,52.8z"/>
	<path clip-path="url(#SVGID_2_)" fill="#FFFFFF" d="M307.7,56.8c-0.3-2.7-1-5.5-2.5-7.8c-1.6-2.3-4.2-3.9-6.9-3.7
		c-3,0.2-5.5,2.6-6.7,5.3c-1.2,2.7-1.4,5.8-1.6,8.8c-2.1-3.4-4.8-6.6-8.5-8c-3.7-1.4-8.5-0.5-10.6,2.9c0.5-7.9-2.7-16-8.6-21.3
		c-2.2-2-4.9-3.7-7.9-3.9c-5.2-0.3-9.7,4.1-11.3,9c-1.6,4.9-0.9,10.3-0.3,15.4c-2.4-1.4-5.7-1.7-8.4-0.9c-2.7,0.7-4.9,3.7-3.9,6.3
		c-3.1-3.7-8.3-5-13.1-4.4c-4.8,0.6-9.1,2.9-13.2,5.5c-4,2.6-7.8,5.6-12.1,7.7c3.4,0,5.1-0.5,8.5-0.5l117.6,1.1
		C320.2,62.4,313.9,55.5,307.7,56.8z"/>
	<path clip-path="url(#SVGID_2_)" fill="#FFFFFF" d="M1058.6,277.1c-0.5-4.5-1.6-9.2-4.2-12.9c-2.6-3.8-7-6.5-11.5-6.2
		c-5,0.4-9.1,4.3-11.2,8.9c-2,4.6-2.4,9.7-2.7,14.6c-3.4-5.7-8-11-14.2-13.3c-6.2-2.3-14.2-0.8-17.7,4.8
		c0.9-13.2-4.6-26.7-14.3-35.6c-3.7-3.4-8.2-6.2-13.2-6.5c-8.6-0.5-16.1,6.8-18.8,15.1c-2.6,8.2-1.6,17.1-0.5,25.7
		c-4-2.3-9.5-2.8-14-1.6c-4.5,1.2-8.1,6.2-6.5,10.6c-5.1-6.1-13.8-8.4-21.8-7.4c-7.9,1-15.2,4.8-21.9,9.1s-13.1,9.3-20.2,12.9
		c5.6,0,8.5-0.8,14.2-0.8l196,1.8C1079.4,286.4,1068.9,274.8,1058.6,277.1z"/>
	<path clip-path="url(#SVGID_2_)" fill="#5FAA95" d="M623.1,521c45.8-2.7,85.8,42.7,131.1,35c24.4-4.1,43.9-23.1,67.9-29.3
		C870.4,514.1,921.4,556,969,541c58-18.3,82.2-133.2,142.9-136.8c25.4-1.5,49,14.4,74.4,15.8c45.4,2.6,79.8-39.5,122.1-56.2
		c52.8-20.9,114.8,0.7,156.5,39.2s67,91.1,90.1,143c19.6,43.9,38.6,92.1,27.2,138.7c-5.9,24.2-19.8,45.8-36.2,64.5
		c-49.3,56.4-121.6,88.5-194.9,103.9c-73.3,15.4-148.9,15.6-223.7,18.1c-345.5,11.5-690.2,73-1035.1,48.8
		c-33.1-2.3-66.8-5.6-97.5-18.4c-60.8-25.5-102-87.6-111.3-152.8s10.5-132.4,45.4-188.3c25.1-40.1,57.9-75.4,96.2-103.3
		c13.9-10.1,31.2-19.7,47.6-14.5c13.1,4.2,23.2,17.3,36.9,17.5c14.5,0.1,24.8-14.1,38.5-18.8c33.1-11.4,59.9,34.6,94.8,37
		c33.2,2.2,54.9-34.2,85.5-47.3c39.5-16.9,83.8,8.2,117.7,34.6c34,26.3,65.1,80.2,107.7,74.5C577.7,536.8,599.2,522.3,623.1,521z"/>
	<path clip-path="url(#SVGID_2_)" fill="#509184" d="M-112.8,595c-0.2-2.1-0.4-4.2-0.6-6.3c-0.3-3.5-0.6-7.1,0.6-10.4
		c1.9-5.2,7.3-8.4,12.8-9.3c5.4-0.9,11,0.2,16.4,1.2c2.5-12.6,18.1-23.5,30.2-19.5c9.2-10.5,25.1-11,39.1-10.8
		c3.5,0.1,7.2,0.2,10.1,2.2c3.5,2.5,5.1,7.4,9,9c2.8,1.1,5.9,0.3,8.8,0.1c10-0.7,19.8,7.3,21.2,17.2c8.6-13.4,29.9-16,41.5-5.1
		c-4.1-9.4,1.2-21.8,10.8-25.3c-7.1-11.4-9.5-26.8-2.3-38.1c7.3-11.3,26-14.4,34.2-3.8c-1.9-5.4-2.9-11.1-3-16.8
		c12.2-7.8,30.5-3.4,37.8,9.1c9.4-14.2,36-8.8,39.1,8c12.3-12.8,35.5-12.6,47.6,0.5c2.2-7.8,9.7-13.7,17.8-14
		c8.1-0.3,16,5.1,18.8,12.7c6.5-14.1,14.3-28.9,28-36.2c13.8-7.3,34.7-2.3,38.3,12.9c7.5-8.9,20.9-12.4,31.8-8.1
		c10.9,4.2,18.4,15.8,17.9,27.5c1.3-6.8,7.8-12.3,14.7-12.5c6.9-0.2,13.7,4.9,15.4,11.7c12.3-10.4,34.2-5,40.4,9.9
		c6.9-5.4,17.1-6,24.6-1.4c7.4,4.6,11.6,14,9.9,22.6c4.4-5.9,14.5-3.6,18.6,2.5s3.7,14,2.9,21.3c6.1-4.4,13.7-6.6,21.2-6.2
		c4.3,7.5,5.8,16.6,4,25.1c9.3-5.3,19.1-10.8,29.8-10.9c10.7-0.2,22.3,6.9,23.2,17.6c11.1-10.4,29.1-10.6,42.7-3.7
		c13.6,6.9,23.4,19.5,31.1,32.6c-51.1,22.7-108.4,25.4-164,31c-92.8,9.4-184.5,27.5-277.2,38.1c-92.7,10.5-187.5,13.3-278.3-8
		c-16.3-3.8-34.8-10.5-40.2-26.3c-2.3-6.6-1.9-14.1-5.1-20.4c-3.2-6.2-13.1-9.8-17-4C-115.2,608-117.2,598-112.8,595z"/>
	<path clip-path="url(#SVGID_2_)" fill="#D4E271" d="M889.6,545.7c38.4-3.6,68.3-33.5,102.4-51.6c55.9-29.8,127.9-26.4,180.7,8.5
		c17.4,11.5,35.6,26.9,56.3,23.7c8.5-1.3,16.3-5.8,23.4-10.7c49.8-34.7,82.1-98.1,141.4-111.1c38.1-8.3,78.2,7.7,107.8,33
		s50.8,58.8,71.4,91.9c20.3,32.5,40.6,65,60.9,97.5c5.5,8.9,11.3,19.4,7.8,29.3c-2,5.6-6.6,9.8-11.2,13.6
		c-18.9,15.5-40.1,28.2-62.8,37.5c-34.2,14-71.1,20.1-107.6,26.1c-286.9,47.2-575.6,94.5-866.3,90.9c-37.4-0.5-75.2-1.8-111-12.5
		c-20.7-6.1-41-15.7-55.4-31.8c-14.4-16-21.9-39.5-15-59.9c11.9-34.7,54.9-44.3,89.2-57.4c51-19.5,92.9-56.7,137.9-87.6
		c45-30.9,98.3-56.9,152.4-48.7C825,531.4,856.4,548.9,889.6,545.7z"/>
	<path clip-path="url(#SVGID_2_)" fill="#A1CB83" d="M606.5,600.3c30-15.2,60-30.4,90-45.6c18.6-9.4,37.8-19,58.5-20.7
		c40.1-3.3,76,22.9,107.7,47.8c-7.4-8.7-14.9-17.3-22.3-26c0,0,49.6,19.1,115.6-22.9s81.2-50.6,127-47.9c35,2.1,41,5.9,86,29.9
		c45,24,99,45,99,45l-33-24c0,0,42-21,78-63c36-42,69-72,114-63c45,9,81,57,108,93s90,144,90,144l-678.1,63l-321-36L606.5,600.3z"/>
	<path clip-path="url(#SVGID_2_)" fill="#427F74" d="M892.6,637.1c-0.1-1.5-0.3-3-0.4-4.4c-0.2-2.4-0.4-5,0.4-7.3
		c1.4-3.6,5.1-5.9,9-6.5c3.8-0.6,7.7,0.1,11.5,0.8c1.7-8.8,12.7-16.5,21.2-13.7c6.5-7.3,17.6-7.8,27.4-7.6c2.4,0,5.1,0.1,7.1,1.5
		c2.5,1.7,3.5,5.2,6.3,6.3c1.9,0.8,4.1,0.2,6.2,0c7-0.5,13.9,5.1,14.9,12.1c6-9.4,21-11.2,29.1-3.6c-2.9-6.6,0.8-15.3,7.6-17.8
		c-5-8-6.7-18.8-1.6-26.7s18.3-10.1,24-2.6c-1.3-3.8-2.1-7.8-2.1-11.8c8.6-5.5,21.4-2.4,26.5,6.4c6.6-10,25.3-6.2,27.4,5.6
		c8.6-9,24.9-8.9,33.4,0.3c1.5-5.5,6.8-9.6,12.5-9.8c5.7-0.2,11.3,3.6,13.2,8.9c4.5-9.9,10-20.3,19.7-25.4s24.4-1.6,26.9,9
		c5.3-6.3,14.7-8.7,22.3-5.7c7.6,3,12.9,11.1,12.5,19.3c0.9-4.8,5.5-8.6,10.3-8.7c4.9-0.1,9.6,3.5,10.8,8.2c8.7-7.3,24-3.5,28.3,6.9
		c4.8-3.8,12-4.2,17.3-1c5.2,3.2,8.1,9.8,6.9,15.8c3.1-4.1,10.2-2.5,13,1.8c2.8,4.3,2.6,9.8,2.1,15c4.3-3.1,9.6-4.6,14.9-4.3
		c3,5.3,4,11.7,2.8,17.6c6.5-3.7,13.4-7.6,20.9-7.7s15.7,4.9,16.3,12.3c7.8-7.3,20.4-7.4,30-2.6c9.5,4.9,16.4,13.7,21.8,22.9
		c-35.9,15.9-76.1,17.8-115.1,21.8c-65.1,6.6-129.5,19.3-194.5,26.7c-65,7.4-131.6,9.3-195.3-5.6c-11.5-2.7-24.4-7.4-28.2-18.5
		c-1.6-4.7-1.3-9.9-3.6-14.3c-2.3-4.4-9.2-6.9-11.9-2.8C890.9,646.2,889.5,639.2,892.6,637.1z"/>
	<path clip-path="url(#SVGID_2_)" fill="#D4E271" d="M-23,565c67.7-9,102.4-64.6,180.2-56.2c56.7,6.1,120.2,59.3,175.8,52.4
		c29.3-3.6,53.6-28.7,84-32.2c31.9-3.7,70.8,10.1,100.1,20c57.5,19.4,108.6,61.7,167.9,77c47.9,12.3,101.5,9.1,151.4,11.6
		C847.1,764.7,616.2,764.5,532,776c-98.7,13.4-197.6,24.5-295.9,36c-56.7,6.6-117.5,23-174.4,9c-33.6-8.3-58.9-32.9-88.5-49
		c-26.2-14.3-60.5-14.9-72.4-47C-116.5,678.5-67.5,570.9-23,565z"/>
	<path clip-path="url(#SVGID_2_)" fill="#A1CB83" d="M-76.6,738.9c-4.4-8.2-5.1-18-5-27.3c0.5-44.7,16.4-89.2,44.4-124.1
		c41-0.5,81.7-13.8,115-37.7c15.5-11.1,30.3-24.7,48.9-28.5c17.4-3.5,35.3,2.2,52,8.2c75.7,27.3,148.6,62.4,217.2,104.6
		c-19.1-23.2-39.3-33.3-67.1-47.2c94.3-60.1,105-63,204-21c57,24.2,84,33,118.5,63c10.6,9.2,20,20.7,23.2,34.4
		c5.2,22.2-8.4,45.4-27.3,58.4c-18.8,12.9-41.9,17.7-64.3,22.1c-72.5,14.1-145.2,26.8-218.2,38c-137.2,21-282.9,35.8-410.3-19.3
		C-57.7,757.1-70.3,750.6-76.6,738.9z"/>
	<g clip-path="url(#SVGID_2_)">
		<path fill="#D7E26A" d="M894.9,568C689.6,568,525.5,668.5,445,800h961.4C1344.8,676.3,1100.2,568,894.9,568z"/>
		<path fill="#ACC64B" d="M909.1,583.5c-205.3,0-369.4,100.5-449.9,232h961.4C1359,691.7,1114.4,583.5,909.1,583.5z"/>
		<g>
			<path fill="#B6D35F" d="M902,598.9c-205.3,0-369.4,100.5-449.9,232h961.4C1351.9,707.2,1107.3,598.9,902,598.9z"/>
			<path opacity="0.5" fill="#60BE5E" d="M916.2,610.5c-205.3,0-369.4,100.5-449.9,232h961.4C1366.1,718.8,1121.5,610.5,916.2,610.5
				z"/>
			<path fill="#B6D35F" d="M930.4,624.1c-205.3,0-369.4,100.5-449.9,232h961.4C1380.3,732.3,1135.7,624.1,930.4,624.1z"/>
			<path opacity="0.5" fill="#60BE5E" d="M935.2,643.4c-205.3,0-369.4,100.5-449.9,232h961.4C1385.1,751.7,1140.5,643.4,935.2,643.4
				z"/>
			<path fill="#B6D35F" d="M923.3,666.6c-205.3,0-369.4,100.5-449.9,232h961.4C1373.2,774.9,1128.6,666.6,923.3,666.6z"/>
			<path opacity="0.5" fill="#60BE5E" d="M937.5,684c-205.3,0-369.4,100.5-449.9,232H1449C1387.4,792.3,1142.8,684,937.5,684z"/>
		</g>
	</g>
	<g clip-path="url(#SVGID_2_)">
		<path fill="#CBD159" d="M134.9,600C-70.4,600-234.5,700.5-315,832h961.4C584.8,708.3,340.2,600,134.9,600z"/>
		<path fill="#ACC64B" d="M149.1,615.5c-205.3,0-369.4,100.5-449.9,232h961.4C599,723.7,354.4,615.5,149.1,615.5z"/>
		<path fill="#C8E25A" d="M142,630.9c-205.3,0-369.4,100.5-449.9,232h961.4C591.9,739.2,347.3,630.9,142,630.9z"/>
		<path fill="#ACC64B" d="M156.2,642.5c-205.3,0-369.4,100.5-449.9,232h961.4C606.1,750.8,361.5,642.5,156.2,642.5z"/>
		<path fill="#C8E25A" d="M170.4,656.1c-205.3,0-369.4,100.5-449.9,232h961.4C620.3,764.3,375.7,656.1,170.4,656.1z"/>
		<path fill="#ACC64B" d="M175.2,675.4c-205.3,0-369.4,100.5-449.9,232h961.4C625.1,783.7,380.5,675.4,175.2,675.4z"/>
		<path fill="#C8E25A" d="M163.3,698.6c-205.3,0-369.4,100.5-449.9,232h961.4C613.2,806.9,368.6,698.6,163.3,698.6z"/>
		<path fill="#ACC64B" d="M177.5,716c-205.3,0-369.4,100.5-449.9,232H689C627.4,824.3,382.8,716,177.5,716z"/>
	</g>
	<path clip-path="url(#SVGID_2_)" fill="#509184" d="M202.7,703.1c-0.1-1.5-0.3-3-0.4-4.4c-0.2-2.4-0.4-5,0.4-7.3
		c1.4-3.6,5.1-5.9,9-6.5c3.8-0.6,7.7,0.1,11.5,0.8c1.7-8.8,12.7-16.5,21.2-13.7c6.5-7.3,17.6-7.8,27.4-7.6c2.4,0,5.1,0.1,7.1,1.5
		c2.5,1.7,3.5,5.2,6.3,6.3c1.9,0.8,4.1,0.2,6.2,0c7-0.5,13.9,5.1,14.9,12.1c6-9.4,21-11.2,29.1-3.6c-2.9-6.6,0.8-15.3,7.6-17.8
		c-5-8-6.7-18.8-1.6-26.7c5.1-7.9,18.3-10.1,24-2.6c-1.3-3.8-2.1-7.8-2.1-11.8c8.6-5.5,21.4-2.4,26.5,6.4c6.6-10,25.3-6.2,27.4,5.6
		c8.6-9,24.9-8.9,33.4,0.3c1.5-5.5,6.8-9.6,12.5-9.8c5.7-0.2,11.3,3.6,13.2,8.9c4.5-9.9,10-20.3,19.7-25.4s24.4-1.6,26.9,9
		c5.3-6.3,14.7-8.7,22.3-5.7c7.6,3,12.9,11.1,12.5,19.3c0.9-4.8,5.5-8.6,10.3-8.7c4.9-0.1,9.6,3.5,10.8,8.2c8.7-7.3,24-3.5,28.3,6.9
		c4.8-3.8,12-4.2,17.3-1c5.2,3.2,8.1,9.8,6.9,15.8c3.1-4.1,10.2-2.5,13,1.8c2.8,4.3,2.6,9.8,2.1,15c4.3-3.1,9.6-4.6,14.9-4.3
		c3,5.3,4,11.7,2.8,17.6c6.5-3.7,13.4-7.6,20.9-7.7c7.5-0.1,15.7,4.9,16.3,12.3c7.8-7.3,20.4-7.4,30-2.6
		c9.5,4.9,16.4,13.7,21.8,22.9c-35.9,15.9-76.1,17.8-115.1,21.8c-65.1,6.6-129.5,19.3-194.5,26.7c-65,7.4-131.6,9.3-195.3-5.6
		c-11.5-2.7-24.4-7.4-28.2-18.5c-1.6-4.7-1.3-9.9-3.6-14.3c-2.3-4.4-9.2-6.9-11.9-2.8C201,712.2,199.6,705.2,202.7,703.1z"/>
	<g clip-path="url(#SVGID_2_)">
		<path fill="#CBD159" d="M488.9,664C220.6,664,6.2,764.5-99,896h1256.3C1076.8,772.3,757.2,664,488.9,664z"/>
		<path fill="#ACC64B" d="M507.5,679.5c-268.3,0-482.7,100.5-587.9,232h1256.3C1095.4,787.7,775.8,679.5,507.5,679.5z"/>
		<path fill="#C8E25A" d="M498.2,694.9c-268.3,0-482.7,100.5-587.9,232h1256.3C1086.1,803.2,766.5,694.9,498.2,694.9z"/>
		<path fill="#ACC64B" d="M516.8,706.5c-268.3,0-482.7,100.5-587.9,232h1256.3C1104.7,814.8,785.1,706.5,516.8,706.5z"/>
		<path fill="#C8E25A" d="M535.3,720.1c-268.3,0-482.7,100.5-587.9,232h1256.3C1123.3,828.3,803.6,720.1,535.3,720.1z"/>
		<path fill="#ACC64B" d="M541.5,739.4c-268.3,0-482.7,100.5-587.9,232h1256.3C1129.5,847.7,809.8,739.4,541.5,739.4z"/>
		<path fill="#C8E25A" d="M526.1,762.6c-268.3,0-482.7,100.5-587.9,232h1256.3C1114,870.9,794.4,762.6,526.1,762.6z"/>
		<path fill="#ACC64B" d="M544.6,780c-268.3,0-482.7,100.5-587.9,232H1213C1132.5,888.3,812.9,780,544.6,780z"/>
	</g>
	<path clip-path="url(#SVGID_2_)" fill="#509184" d="M978.2,686.9l0.2-20.4l0.9-16.5L987,669l3.9-17l6.8,8.9c0,0,3-5.7,1.7-12.5
		c-1.3-6.9,3.2-9.8,3.2-9.8l10.1-16.2l2.7,30l12.9-12.6c0,0,13.9,8.5,13.3,5.6c-0.6-2.9-0.2-22.4-0.2-22.4l4.4,17.5l4.4-14.1
		c3.5,2.4,11.3,6,11.3,6l3.5-13.9l9.7,8.3l3.3-20l5.2,11.2l3,10.6l8.2-20.9l2.1,10.8l7.1-5.4l4.4-9l5.8,9.1l4.8-7
		c6.6,2.8,9.1-19.1,9.1-19.1l12,10.7v-18l5.3,8c1.9,2.8,6,2.7,7.7-0.2l-0.3-8.4l6,11.3l2.7-15.3l8.7,13.3l6.7-12.7
		c4.7,3.2,13.3,7.3,13.3,7.3l3,5.9l6-11.3l7.6,7.7l4.1-16l4.6,13.4l5-16.2l7.2,10.8l4.1-16l9.1,10.5l1.2-20.6l8.3,16.7l8.8-23.1
		l11,20.3l5.6-13.3l9.1,10.5l4.7-28.4l12.7,24l5.8-17.4l6.7,14l2.8-28l13.9,24.8l9.6-24.2l12,20.1l8.8-23.1l10.6,23.4l5.5-24.5
		l8.9,36l1.9-16.7l2.4,12.8l3.7-23.1l5.6,13.2l8-21.9l8.2,21.8l9.6-19.1l6.9,15l2.3-19.8l8.4,22.8l1.1-36.9l9.1,31.8
		c5.1-5.1,5.4-14.3,5.4-14.3l7.1,15.9l4.5-19.2l6.1,16.1l-1.9-36.3l12.5,33.2l4.8-12.1l5.8,14.2l2.1-37l8.8,29.9l8.3-9.7l6.9,15
		l4.4-35.5L1544,536l4.7-18.2l10.3,11.3l17.9-28.9l25,34.9l22.8-29.8l36.1,18.5L1605,609l-487.8,91.1L978.2,686.9z"/>
	<path clip-path="url(#SVGID_2_)" fill="none" d="M1003.5,538.1"/>
	<polygon clip-path="url(#SVGID_2_)" fill="#539B7A" points="111.1,747 123.8,715.1 134.9,710.3 120.6,704 133.3,659.4 146.1,659.4 
		139.7,645.1 146.1,614.8 162,619.6 149.3,597.3 168.4,519.3 182.7,587.8 173.1,605.3 184.3,600.5 192.2,645.1 182.7,662.6 
		197,665.8 197,691.2 179.5,707.2 208.2,708.8 220.9,753.3 	"/>
	<polygon clip-path="url(#SVGID_2_)" fill="#458768" points="38.3,744.5 49.4,712.7 59.1,707.9 46.6,701.5 57.7,657 68.7,657 
		63.2,642.6 68.7,612.4 82.6,617.2 71.5,594.9 88.1,516.9 100.5,585.3 92.2,602.8 101.9,598.1 108.8,642.6 100.5,660.1 113,663.3 
		113,688.8 97.8,704.7 122.7,706.3 133.7,750.9 	"/>
	<polygon clip-path="url(#SVGID_2_)" fill="#57A07B" points="0,742.3 11.1,699.7 20.7,693.3 8.3,684.7 19.4,625 30.4,625 
		24.9,605.8 30.4,565.2 44.2,571.6 33.2,541.8 49.8,437.2 62.2,529 53.9,552.4 63.6,546 70.5,605.8 62.2,629.2 74.7,633.5 
		74.7,667.7 59.4,689 84.3,691.1 95.4,750.9 	"/>
	<g clip-path="url(#SVGID_2_)">
		<path fill="#CBD159" d="M1334.9,576c-205.3,0-369.4,97.1-449.9,224h961.4C1784.8,680.5,1540.2,576,1334.9,576z"/>
		<path opacity="0.5" fill="#60BE5E" d="M1349.1,590.9c-205.3,0-369.4,97.1-449.9,224h961.4C1799,695.5,1554.4,590.9,1349.1,590.9z"
			/>
		<path fill="#C8E25A" d="M1342,605.9c-205.3,0-369.4,97.1-449.9,224h961.4C1791.9,710.4,1547.3,605.9,1342,605.9z"/>
		<path opacity="0.5" fill="#60BE5E" d="M1356.2,617.1c-205.3,0-369.4,97.1-449.9,224h961.4C1806.1,721.6,1561.5,617.1,1356.2,617.1
			z"/>
		<path fill="#C8E25A" d="M1370.4,630.1c-205.3,0-369.4,97.1-449.9,224h961.4C1820.3,734.7,1575.7,630.1,1370.4,630.1z"/>
		<path opacity="0.5" fill="#60BE5E" d="M1375.2,648.8c-205.3,0-369.4,97.1-449.9,224h961.4C1825.1,753.3,1580.5,648.8,1375.2,648.8
			z"/>
		<path fill="#C8E25A" d="M1363.3,671.2c-205.3,0-369.4,97.1-449.9,224h961.4C1813.2,775.7,1568.6,671.2,1363.3,671.2z"/>
		<path opacity="0.5" fill="#60BE5E" d="M1377.5,688c-205.3,0-369.4,97.1-449.9,224H1889C1827.4,792.5,1582.8,688,1377.5,688z"/>
	</g>
	<g clip-path="url(#SVGID_2_)">
		<path fill="#E7ED7E" d="M93,1013c0,0,568-408,1328-324v344L93,1013z"/>
		<path fill="#D0EA7F" d="M99.8,1044.4c0,0,560.9-417.7,1322.3-346.7l5.9,343.9L99.8,1044.4z"/>
		<path fill="#E3E880" d="M102.8,1083.8c0,0,553.6-427.3,1316.1-369.6l11.8,343.8L102.8,1083.8z"/>
		<path opacity="0.55" fill="#60BE5E" d="M121,1069.2c0,0,567.9-408.2,1327.9-324.4l0.1,344L121,1069.2z"/>
		<path fill="#E7ED7E" d="M131.8,1112.4c0,0,560.9-417.7,1322.2-346.8l5.9,343.9L131.8,1112.4z"/>
		<path opacity="0.5" fill="#60BE5E" d="M155.7,1163c0,0,551.5-430,1314.3-375.9l13.5,343.7L155.7,1163z"/>
		<path fill="#B6D35F" d="M171.8,1217c0,0,542.2-441.7,1305.9-404l20.9,343.4L171.8,1217z"/>
		<path opacity="0.5" fill="#60BE5E" d="M187.9,1216.4c0,0,570.8-404,1330.2-314.8l-2.4,344L187.9,1216.4z"/>
	</g>
	<g clip-path="url(#SVGID_2_)">
		<rect x="474.6" y="678.5" fill="#8D3F29" width="27.9" height="65.7"/>
		<polygon fill="#E5D6BF" points="556,898 630.6,879.1 630.6,745.4 548.2,745.4 		"/>
		<polygon fill="#FFFED4" points="466.8,759.8 466.8,876.8 556,898 556,771 509.2,710.8 		"/>
		<polygon fill="#8D3F29" points="466.8,759.8 459,756.5 511.4,696.3 596.1,689.6 644,756.5 556,771 509.2,710.8 		"/>
		<polygon fill="#AA9B87" points="622.8,806.6 571.6,816.7 571.6,779.9 622.8,769.9 		"/>
		<polygon fill="#AA9B87" points="523.6,785.5 493.6,781 493.6,744.2 523.6,748.7 		"/>
		<polygon fill="#AA9B87" points="503.6,814.4 474.6,810.4 474.6,791 503.6,795 		"/>
		<polygon fill="#AA9B87" points="541.5,821.1 512.5,816 512.5,796.6 541.5,801.7 		"/>
	</g>
	<g clip-path="url(#SVGID_2_)">
		<rect x="623.4" y="767.6" fill="#8D3F29" width="20.7" height="48.8"/>
		<polygon fill="#E5D6BF" points="683.7,930.4 739.1,916.4 739.1,817.2 678,817.2 		"/>
		<polygon fill="#FFFED4" points="617.6,827.9 617.6,914.7 683.7,930.4 683.7,836.2 649,791.6 		"/>
		<polygon fill="#8D3F29" points="617.6,827.9 611.8,825.4 650.7,780.8 713.5,775.8 749.1,825.4 683.7,836.2 649,791.6 		"/>
		<polygon fill="#AA9B87" points="733.4,862.7 695.3,870.1 695.3,842.8 733.4,835.4 		"/>
		<polygon fill="#AA9B87" points="659.8,846.9 637.4,843.6 637.4,816.4 659.8,819.7 		"/>
		<polygon fill="#AA9B87" points="644.9,868.4 623.4,865.5 623.4,851.1 644.9,854 		"/>
		<polygon fill="#AA9B87" points="673,873.4 651.5,869.6 651.5,855.2 673,859 		"/>
	</g>
	<g clip-path="url(#SVGID_2_)">
		<g>
			<rect x="825.9" y="637.4" fill="#8D3F29" width="13.6" height="32.2"/>
			<polygon fill="#E5D6BF" points="865.7,744.9 902.2,735.6 902.2,670.1 861.9,670.1 			"/>
			<polygon fill="#FFFED4" points="822,677.2 822,734.5 865.7,744.9 865.7,682.7 842.8,653.2 			"/>
			<polygon fill="#8D3F29" points="822,677.2 818.2,675.6 843.9,646.1 885.3,642.8 908.8,675.6 865.7,682.7 842.8,653.2 			"/>
			<polygon fill="#AA9B87" points="898.4,700.1 873.3,705 873.3,687 898.4,682.1 			"/>
			<polygon fill="#AA9B87" points="849.9,689.8 835.1,687.6 835.1,669.6 849.9,671.8 			"/>
			<polygon fill="#AA9B87" points="840,703.9 825.9,702 825.9,692.5 840,694.4 			"/>
			<polygon fill="#AA9B87" points="858.6,707.2 844.4,704.7 844.4,695.2 858.6,697.7 			"/>
		</g>
		<polygon fill="#E5D6BF" points="983,746 995,740 995,709 966,703 		"/>
		<polygon fill="#FFFED4" points="892,744 892,707 983,707 983,746 		"/>
		<polygon fill="#8D3F29" points="901.9,690.2 985.1,688 1003,715 884,715 		"/>
		<rect x="904" y="721" fill="#AA9B87" width="29" height="10"/>
		<rect x="945" y="721" fill="#AA9B87" width="29" height="24"/>
	</g>
	<g clip-path="url(#SVGID_2_)">
		<path fill="#D7E26A" d="M-17.9,728.3c0,0,181.6-27.1,396.2,61.1s520,188.3,726.4,199.3l8.3,48.3H-55L-17.9,728.3z"/>
		<path fill="#B6D35F" d="M-37.9,740.3c0,0,181.6-27.1,396.2,61.1s520,188.3,726.4,199.3l8.3,48.3H-75L-37.9,740.3z"/>
		<path fill="#60BE5E" d="M-51.9,753.5c0,0,181.9-24.9,395.4,66s517.7,194.7,723.9,208.3l7.7,48.4l-1167.9-14.5L-51.9,753.5z"/>
		<path fill="#B6D35F" d="M-67.9,793.5c0,0,181.9-24.9,395.4,66s517.7,194.7,723.9,208.3l7.7,48.4l-1167.9-14.5L-67.9,793.5z"/>
		<path opacity="0.5" fill="#60BE5E" d="M-80.5,806.4c0,0,182.4-21.2,394,74.1s513.6,205.3,719.4,223.1l6.7,48.6l-1167.4-38.4
			L-80.5,806.4z"/>
		<path fill="#B6D35F" d="M-112.5,842.4c0,0,182.4-21.2,394,74.1s513.6,205.3,719.4,223.1l6.7,48.6l-1167.4-38.4L-112.5,842.4z"/>
		<path opacity="0.5" fill="#60BE5E" d="M-144.9,867.7c0,0,183.2-12.9,390.3,91.7s503.8,228.1,708.7,255.2l4.5,48.8l-1164.5-90.8
			L-144.9,867.7z"/>
	</g>
	<g clip-path="url(#SVGID_2_)">
		<path fill="#36895B" d="M1553.1,893.6c-0.8-15-2.3-28.8-3.1-43.8c-30.2,23.5-61.7,47.7-98.1,53.7c-26.3,4.3-53.1-1.3-79.6-4.4
			c-31.1-3.6-62.5-3.9-93.5-0.5c1.6-8.1,1.1-16.7-1.4-24.6c-3.8,5.9-7.6,11.9-11.4,17.8c0.1-6.4-1.1-12.8-3.5-18.7
			c-1.1,5.9-2.9,11.6-5.1,17c-1-9.6-1.9-19.3-2.9-28.9c-7.8,5.8-2.1,21.1-7.6,29.6c-1.4-12.7-2.8-25.3-4.2-38
			c-1.6,11.4-3.2,23.2-1.5,34.6c-16.4,5.1-33.6,9.8-50.4,6.1c-7.3-1.6-14.2-4.8-21.2-7.5c-30.9-11.9-66.6-11.3-98.6-5.2
			c-2.4-13.8-3.7-27.9-3.9-41.9c-1.6,12.1-3.2,24.2-4.8,36.3c-1.6-7.6-3.1-15.2-4.7-22.8c0.2,9.4-1,18.8-3.6,27.7
			c-1.9-7-3-14.2-3.2-21.5c-4.2,5-6.6,11.9-6.5,18.8c-1.1-5.3-2.2-10.7-3.3-16c1,9,2.1,18,3.1,27.1c-6.6-7.9-38.1,16.9-40.9,6.5
			c-54.8,23.7-85.6,23.9-141.7,33.2c-4.6,0-9.2,0-13.8,0c-8.6,0-17.4,0-25.3-3.2c-0.2,1.8-0.5,3.7-0.7,5.5c-1.2-2.5-2.4-5.1-3.5-7.6
			c-0.6,3.5-1.1,7-1.7,10.6c-1.3-2.5-2.7-5.1-4-7.6c-0.1,2.2-0.2,4.4-0.3,6.6c-0.9-1.2-3-2-4.2-0.9c-1.1,1-1.5,2.3-1.6,3.8
			c-0.4,0-0.7,0.1-1.1,0.1c-1.2-3.2-2.4-6.4-3.6-9.6c-0.8,3.4-1.5,6.8-2.3,10.2c-0.3,0-0.6,0.1-0.9,0.1c-2.6-12.2-3.9-24.7-3.9-37.2
			c-2.3,11.8-3.5,23.9-3.4,36c-1.5-2.5-2.4-5.3-2.9-8.1c0,2.7,0,5.4,0,8.1c-2.1-3.2-3.6-6.8-4.4-10.5c0,4,0,8,0,12c-1-4-2-8-3-12
			c-1.3,4.3-1.8,8.9-1.5,13.4c-0.1,0-0.2,0-0.3,0c-1.2-5-2.5-10-3.7-15c-0.5,5.1-1,10.2-1.5,15.4c-0.2,0-0.3,0-0.5,0
			c-0.9-11.2-1.8-22.3-2.7-33.5c-0.7,10.5-1.3,21-2,31.5c-1.6-9.5-3.1-19-4.7-28.6c-0.9,10.5-1.7,20.9-2.6,31.4
			c-0.8,0-1.5,0.1-2.3,0.1c-1.1-5-2.2-10-3.4-15.1c-1.7,5.2-3.3,10.4-5,15.5c-0.3,0-0.6,0-0.9,0c-0.3-5.7-0.6-11.4-0.9-17.1
			c-3.4,5.9-6.8,11.8-10.1,17.6c-83.6,3.5-168-0.8-252.9-3.8c-130.6-4.5-278.4,30.9-405.9,61.5l19.9,139.8l1462.2-78.1L1553.1,893.6
			z"/>
		<path fill="#36895B" d="M788.1,926.9c0-2.3,0-4.6,0-6.9C787.7,922.3,787.7,924.6,788.1,926.9z"/>
	</g>
	<path clip-path="url(#SVGID_2_)" fill="#FFFFFF" d="M257.8,287c-0.8-6.7-2.4-13.4-6.2-19c-3.8-5.5-10.2-9.6-16.9-9.1
		c-7.3,0.5-13.4,6.3-16.4,13c-3,6.7-3.5,14.2-4,21.5c-5-8.3-11.8-16.1-20.9-19.5c-9.1-3.4-20.8-1.1-25.9,7.1
		c1.3-19.4-6.7-39.1-21-52.2c-5.4-4.9-12-9-19.3-9.5c-12.7-0.8-23.7,10-27.6,22.1c-3.9,12.1-2.3,25.1-0.7,37.7
		c-5.9-3.4-13.9-4.1-20.5-2.3c-6.6,1.8-11.9,9.1-9.6,15.5c-7.5-9-20.3-12.3-31.9-10.9c-11.6,1.5-22.3,7-32.2,13.4
		c-9.9,6.4-19.2,13.6-29.6,18.9c8.3,0,12.5-1.2,20.8-1.2l287.5,2.7C288.2,300.7,272.8,283.7,257.8,287z"/>
	<path clip-path="url(#SVGID_2_)" fill="#FFFFFF" d="M1369.6,306.9c1.6-5.7,0.9-11.9-2.8-16.4c-3.6-4.5-10.1-6.1-15.5-4.7
		c-2.6-2.4-5.8-4.2-9.2-4.7c-1.8-4.1-4.6-7.7-8.4-10.1c-6.6-4.1-16.4-3-20.5,3.5c2.6-5.2,0.8-12.3-4-15.6c-4.8-3.3-12-2.6-16,1.7
		c4.5-28.3-13.7-59-41.2-67c-27.5-8-60.3,9.3-67.7,37c-2.3,8.7-2.3,17.9-1.6,26.9c0.9,11,2.8,22,5.6,32.6
		c-5.2-7.9-17.9-8.3-24.8-1.9c-3.9,3.6-6,8.7-6.5,14c-8.2,2.1-15.9,6.3-23,10.9c-8.8,5.7-17.1,12.1-26.4,16.9c7.4,0,11.1-1,18.5-1
		l256.4,2.4C1385.7,321.5,1378.8,310.6,1369.6,306.9z"/>
	<path clip-path="url(#SVGID_2_)" fill="#FFFFFF" d="M676.6,372.6c2.4-8.5,1.3-17.9-4.2-24.8c-5.4-6.7-15.3-9.3-23.3-7
		c-3.9-3.7-8.7-6.3-13.9-7.1c-2.8-6.2-6.9-11.7-12.7-15.2c-9.9-6.1-24.8-4.5-31,5.3c3.9-7.9,1.2-18.5-6-23.5
		c-7.2-5-18.1-3.9-24.1,2.6c6.8-42.7-20.7-89-62.2-101.1c-41.5-12.1-91,14-102,55.8c-3.5,13.2-3.4,27-2.4,40.5
		c1.3,16.6,4.2,33.1,8.5,49.2c-7.8-11.9-26.9-12.5-37.4-2.9c-5.9,5.4-9.1,13.1-9.8,21.1c-12.4,3.1-23.9,9.4-34.7,16.4
		c-13.2,8.5-25.8,18.3-39.8,25.4c11.1,0,16.8-1.6,27.9-1.6l386.7,3.6C700.9,394.6,690.5,378.1,676.6,372.6z"/>
</g>
</svg>
