<?xml version="1.0" standalone="no"?><!DOCTYPE svg PUBLIC "-//W3C//DTD SVG 1.1//EN" "http://www.w3.org/Graphics/SVG/1.1/DTD/svg11.dtd"><svg t="1600666777728" class="icon" viewBox="0 0 1024 1024" version="1.1" xmlns="http://www.w3.org/2000/svg" p-id="1344" xmlns:xlink="http://www.w3.org/1999/xlink" width="20" height="20"><defs><style type="text/css"></style></defs><path d="M163.84 281.6h625.664v671.744H163.84z" fill="#FDC300" p-id="1345"></path><path d="M790.528 968.704H163.84c-8.192 0-15.36-7.168-15.36-15.36V281.6c0-8.192 7.168-15.36 15.36-15.36h626.688c8.192 0 15.36 7.168 15.36 15.36v671.744c0 8.192-7.168 15.36-15.36 15.36z m-611.328-30.72h595.968V296.96H179.2v641.024z" fill="#0F0F0F" p-id="1346"></path><path d="M732.16 998.4H222.208c-31.744 0-57.344-25.6-57.344-57.344v-6.144h625.664v6.144c0 31.744-25.6 57.344-58.368 57.344z" fill="#FFFFFF" p-id="1347"></path><path d="M732.16 1013.76H222.208c-39.936 0-72.704-32.768-72.704-72.704v-6.144c0-8.192 7.168-15.36 15.36-15.36h626.688c8.192 0 15.36 7.168 15.36 15.36v6.144c-1.024 39.936-33.792 72.704-74.752 72.704z m-551.936-63.488c4.096 18.432 21.504 32.768 40.96 32.768h510.976c20.48 0 36.864-14.336 40.96-32.768H180.224z" fill="#0F0F0F" p-id="1348"></path><path d="M727.04 108.544c-19.456 0-38.912 5.12-54.272 14.336C670.72 65.536 622.592 18.432 563.2 18.432c-41.984 0-78.848 23.552-96.256 59.392-25.6-14.336-56.32-22.528-89.088-22.528-76.8 0-141.312 45.056-155.648 105.472-10.24-6.144-21.504-10.24-34.816-10.24-34.816 0-63.488 28.672-63.488 63.488 0 19.456 9.216 37.888 23.552 49.152-11.264 13.312-19.456 30.72-19.456 50.176 0 28.672 15.36 54.272 38.912 66.56-2.048 4.096-3.072 9.216-3.072 14.336v244.736c0 22.528 18.432 40.96 40.96 40.96s40.96-18.432 40.96-40.96V395.264c0-5.12-1.024-10.24-3.072-14.336 15.36-9.216 27.648-22.528 33.792-39.936 14.336 14.336 33.792 22.528 55.296 22.528 31.744 0 59.392-19.456 70.656-47.104 30.72-4.096 58.368-15.36 79.872-31.744 7.168 39.936 43.008 69.632 84.992 69.632 37.888 0 70.656-24.576 81.92-59.392 19.456 19.456 47.104 31.744 76.8 31.744 60.416 0 108.544-49.152 108.544-108.544S786.432 108.544 727.04 108.544z" fill="#FFFFFF" p-id="1349"></path><path d="M204.8 696.32c-30.72 0-56.32-25.6-56.32-56.32V395.264c0-3.072 0-5.12 1.024-8.192-22.528-17.408-36.864-45.056-36.864-73.728 0-17.408 5.12-34.816 14.336-49.152-12.288-14.336-18.432-31.744-18.432-51.2 0-43.008 35.84-78.848 78.848-78.848 9.216 0 17.408 1.024 25.6 4.096 23.552-58.368 90.112-99.328 164.864-99.328 29.696 0 58.368 6.144 83.968 18.432 22.528-33.792 61.44-54.272 102.4-54.272C623.616 3.072 673.792 45.056 686.08 101.376c13.312-5.12 27.648-7.168 41.984-7.168 68.608 0 123.904 55.296 123.904 123.904 0 68.608-55.296 123.904-123.904 123.904-25.6 0-50.176-8.192-71.68-22.528-18.432 30.72-51.2 50.176-87.04 50.176-40.96 0-77.824-24.576-93.184-61.44-18.432 10.24-38.912 18.432-61.44 21.504-16.384 29.696-47.104 49.152-81.92 49.152-18.432 0-34.816-5.12-50.176-14.336-6.144 9.216-13.312 16.384-21.504 22.528 0 3.072 1.024 5.12 1.024 8.192v244.736c-1.024 30.72-26.624 56.32-57.344 56.32z m-18.432-531.456c-26.624 0-48.128 21.504-48.128 48.128 0 14.336 6.144 28.672 17.408 37.888 3.072 3.072 5.12 6.144 5.12 10.24s-1.024 8.192-4.096 11.264c-10.24 11.264-15.36 25.6-15.36 40.96 0 22.528 12.288 43.008 31.744 53.248 6.144 4.096 9.216 11.264 7.168 18.432-1.024 3.072-2.048 6.144-2.048 9.216v244.736c0 14.336 11.264 25.6 25.6 25.6s25.6-11.264 25.6-25.6V395.264c0-3.072-1.024-6.144-2.048-9.216-3.072-7.168 0-15.36 7.168-18.432 12.288-7.168 22.528-18.432 27.648-31.744 2.048-5.12 6.144-8.192 11.264-9.216 5.12-1.024 10.24 0 14.336 4.096 11.264 12.288 27.648 18.432 44.032 18.432 24.576 0 47.104-15.36 57.344-37.888 2.048-5.12 7.168-8.192 12.288-9.216 27.648-4.096 52.224-13.312 72.704-28.672 4.096-3.072 10.24-4.096 14.336-2.048 5.12 2.048 8.192 6.144 9.216 11.264 6.144 33.792 35.84 57.344 69.632 57.344 30.72 0 57.344-19.456 67.584-48.128 2.048-5.12 6.144-9.216 11.264-10.24 5.12-1.024 10.24 0 14.336 4.096 17.408 17.408 40.96 27.648 66.56 27.648 51.2 0 93.184-41.984 93.184-93.184S778.24 126.976 727.04 126.976c-16.384 0-32.768 4.096-47.104 12.288-5.12 3.072-10.24 3.072-15.36 0s-8.192-7.168-8.192-13.312c-1.024-52.224-41.984-92.16-93.184-92.16-34.816 0-66.56 19.456-82.944 51.2-2.048 3.072-5.12 6.144-9.216 7.168-4.096 1.024-8.192 1.024-12.288-1.024-24.576-13.312-52.224-20.48-81.92-20.48-68.608 0-128 39.936-140.288 94.208-1.024 5.12-5.12 9.216-9.216 10.24-5.12 2.048-10.24 1.024-14.336-1.024-7.168-6.144-16.384-9.216-26.624-9.216z" fill="#0F0F0F" p-id="1350"></path><path d="M245.76 841.728c-8.192 0-15.36-7.168-15.36-15.36V635.904c0-8.192 7.168-15.36 15.36-15.36s15.36 7.168 15.36 15.36v190.464c0 8.192-7.168 15.36-15.36 15.36zM381.952 841.728c-8.192 0-15.36-7.168-15.36-15.36V417.792c0-8.192 7.168-15.36 15.36-15.36s15.36 7.168 15.36 15.36v408.576c0 8.192-7.168 15.36-15.36 15.36z" fill="#0F0F0F" p-id="1351"></path><path d="M513.024 841.728c-8.192 0-15.36-7.168-15.36-15.36V417.792c0-8.192 7.168-15.36 15.36-15.36s15.36 7.168 15.36 15.36v408.576c0 8.192-6.144 15.36-15.36 15.36z" fill="#0F0F0F" p-id="1352"></path><path d="M645.12 841.728c-8.192 0-15.36-7.168-15.36-15.36V417.792c0-8.192 7.168-15.36 15.36-15.36s15.36 7.168 15.36 15.36v408.576c0 8.192-7.168 15.36-15.36 15.36z" fill="#0F0F0F" p-id="1353"></path><path d="M821.248 705.536h-26.624c-8.192 0-15.36-7.168-15.36-15.36V408.576c0-8.192 7.168-15.36 15.36-15.36h26.624c40.96 0 74.752 33.792 74.752 74.752v162.816c0 40.96-32.768 74.752-74.752 74.752z m-10.24-30.72h11.264c24.576 0 44.032-19.456 44.032-44.032V467.968c0-24.576-19.456-44.032-44.032-44.032h-11.264v250.88z" fill="#0F0F0F" p-id="1354"></path></svg>