<?xml version="1.0" standalone="no"?>
<!DOCTYPE svg PUBLIC "-//W3C//DTD SVG 20010904//EN"
 "http://www.w3.org/TR/2001/REC-SVG-20010904/DTD/svg10.dtd">
<svg version="1.0" xmlns="http://www.w3.org/2000/svg"
 width="300.000000pt" height="300.000000pt" viewBox="0 0 300.000000 300.000000"
 preserveAspectRatio="xMidYMid meet">

<g transform="translate(0.000000,300.000000) scale(0.100000,-0.100000)"
fill="#000000" stroke="none">
<path d="M1487 2484 c-4 -4 -7 -22 -7 -41 0 -27 4 -33 21 -33 17 0 20 5 17 37
-3 35 -17 51 -31 37z"/>
<path d="M1217 2444 c-8 -8 2 -55 14 -69 6 -6 15 -3 24 6 12 12 14 22 6 42
-10 26 -30 35 -44 21z"/>
<path d="M1740 2424 c-9 -22 -8 -31 5 -43 19 -19 33 -7 37 34 4 41 -28 48 -42
9z"/>
<path d="M1480 2230 c0 -133 1 -140 20 -140 19 0 20 7 20 140 0 133 -1 140
-20 140 -19 0 -20 -7 -20 -140z"/>
<path d="M970 2332 c0 -11 9 -30 19 -43 16 -20 22 -22 33 -11 10 10 10 18 -2
40 -19 33 -50 42 -50 14z"/>
<path d="M1984 2325 c-16 -25 -13 -55 5 -55 14 0 41 41 41 62 0 26 -27 22 -46
-7z"/>
<path d="M1246 2332 c-5 -8 58 -260 68 -269 9 -9 36 6 36 19 0 7 -15 67 -33
133 -23 86 -37 121 -49 123 -9 2 -19 -1 -22 -6z"/>
<path d="M1717 2333 c-13 -21 -67 -248 -63 -259 11 -29 35 -14 46 29 6 23 22
82 35 131 14 49 22 93 19 97 -6 11 -31 12 -37 2z"/>
<path d="M1025 2240 c-9 -14 123 -240 140 -240 31 0 23 26 -38 133 -61 105
-86 132 -102 107z"/>
<path d="M1899 2178 c-23 -40 -53 -92 -66 -115 -24 -42 -24 -63 2 -63 16 0
149 226 140 240 -15 24 -37 6 -76 -62z"/>
<path d="M755 2180 c-10 -17 23 -60 45 -60 26 0 26 31 2 53 -21 19 -38 22 -47
7z"/>
<path d="M2197 2172 c-10 -10 -17 -26 -17 -35 0 -26 37 -21 56 8 26 41 -6 63
-39 27z"/>
<path d="M842 2097 c-9 -10 11 -36 87 -111 91 -90 121 -108 121 -72 0 11 -181
196 -192 196 -3 0 -10 -6 -16 -13z"/>
<path d="M2042 2017 c-91 -91 -103 -109 -81 -123 15 -9 209 185 202 202 -10
26 -29 14 -121 -79z"/>
<path d="M1495 2050 c-145 -8 -237 -37 -337 -105 -314 -215 -357 -656 -89
-923 106 -106 278 -182 413 -182 36 0 48 -4 48 -15 0 -35 -189 -5 -304 49 -42
19 -102 55 -134 80 -57 45 -149 156 -173 209 -7 15 -15 27 -18 27 -3 0 -23
-30 -45 -65 -21 -36 -41 -67 -45 -69 -3 -3 -42 0 -86 5 -43 4 -80 7 -82 5 -2
-1 22 -43 53 -92 91 -146 235 -280 380 -352 72 -36 200 -78 266 -88 l48 -6
-12 33 -11 32 -18 -21 c-19 -24 -27 -26 -47 -13 -11 7 -10 19 3 67 21 71 24
75 53 68 17 -5 21 -11 16 -30 -6 -24 -6 -24 23 -8 20 12 38 15 58 10 l29 -7
-32 -21 c-18 -11 -32 -22 -32 -25 0 -2 5 -24 11 -49 l11 -44 77 2 c73 1 74 1
22 7 l-55 6 3 70 c1 38 4 71 6 73 2 2 13 1 24 -3 18 -5 21 -15 21 -56 l0 -49
35 0 c28 0 35 -4 35 -20 0 -25 15 -25 121 1 174 43 320 129 450 266 66 69 185
240 175 250 -2 2 -32 -1 -67 -7 -113 -18 -111 -19 -149 60 -19 39 -36 70 -39
70 -3 0 -22 -28 -41 -61 -32 -56 -117 -148 -182 -198 -28 -23 -150 -83 -155
-77 -11 11 16 36 74 65 194 101 325 340 310 566 -16 230 -165 435 -379 521
-35 15 -67 32 -71 40 -4 8 -16 13 -25 12 -9 0 -71 -4 -137 -8z m190 -70 c-4
-6 1 -20 10 -30 10 -11 15 -28 12 -40 -3 -11 -1 -18 4 -14 8 4 13 -8 11 -27
-1 -3 10 -12 23 -19 14 -7 25 -17 25 -22 0 -12 -9 -10 -38 10 -36 25 -59 33
-107 39 -22 3 -42 7 -45 10 -9 9 26 23 55 22 29 -1 29 -1 5 -9 -14 -4 -18 -9
-10 -9 8 -1 26 -4 40 -6 22 -5 22 -4 5 4 l-20 10 20 1 20 1 -20 9 c-11 5 -49
8 -85 8 -41 0 -55 -3 -38 -7 20 -4 25 -10 19 -19 -4 -8 -11 -13 -15 -13 -24 3
-40 -3 -80 -34 -25 -19 -46 -31 -46 -27 0 12 82 72 99 72 13 1 12 3 -2 11 -15
9 -24 6 -44 -13 l-26 -23 12 23 c6 12 23 29 36 38 17 11 25 26 25 44 0 24 8
32 51 54 l52 26 30 -29 c16 -17 26 -34 22 -41z m-165 24 c0 -4 -14 -22 -31
-42 -36 -41 -83 -137 -75 -151 4 -5 1 -13 -5 -17 -8 -5 -9 -3 -4 6 6 9 4 11
-4 6 -7 -5 -10 -14 -7 -21 5 -14 -27 -49 -36 -39 -3 3 -9 0 -14 -7 -4 -8 -3
-10 4 -5 14 9 15 5 3 -28 -8 -19 -6 -30 10 -49 10 -14 19 -28 19 -32 0 -5 8
-14 18 -21 14 -11 14 -13 2 -13 -21 0 -63 68 -63 102 0 15 -4 27 -8 27 -21 0
-41 -15 -55 -41 -8 -16 -20 -29 -27 -29 -7 0 -18 -9 -25 -21 -11 -16 -16 -18
-28 -9 -11 10 -14 9 -14 -4 0 -11 4 -14 13 -10 8 5 8 2 -2 -9 -12 -15 -10 -22
10 -51 13 -19 26 -33 29 -31 3 2 6 -15 8 -36 4 -54 -19 -51 -52 6 -15 25 -33
45 -41 45 -23 0 6 -84 30 -89 40 -7 47 -26 69 -181 2 -13 -2 -76 -10 -140 -7
-63 -14 -125 -14 -138 0 -23 0 -23 -43 7 -225 155 -302 463 -177 711 79 156
252 277 430 300 78 10 90 11 90 4z m385 -176 c106 -112 155 -233 155 -381 0
-145 -49 -272 -148 -378 -46 -50 -136 -119 -155 -119 -4 0 3 24 14 53 38 93
60 169 57 191 -1 11 1 26 4 32 7 10 -24 229 -34 239 -2 3 -10 -11 -16 -31 -8
-29 -8 -33 3 -24 9 8 14 6 18 -9 5 -22 -6 -35 -41 -46 -27 -8 -27 -6 9 90 25
65 24 116 -1 145 -25 29 -25 42 5 115 25 61 32 101 16 91 -5 -3 -12 1 -15 10
-4 9 -2 13 5 8 8 -5 8 -1 0 14 -6 11 -18 22 -26 26 -9 3 -14 10 -10 15 3 5 -1
28 -9 50 l-14 41 59 -32 c35 -18 86 -59 124 -100z m-144 -91 c-11 -19 -21 -41
-21 -49 0 -32 -27 -42 -78 -27 l-47 13 38 9 c24 6 55 25 80 51 23 22 44 40 46
39 2 -1 -6 -17 -18 -36z m-475 -82 c-9 -14 -12 -25 -7 -25 16 0 23 -38 11 -57
-9 -15 -10 -13 -6 12 3 17 3 24 -1 16 -4 -11 -8 -9 -17 7 -8 15 -15 19 -26 12
-13 -8 -12 -10 4 -10 12 0 16 -5 12 -16 -3 -8 -2 -13 3 -9 18 11 23 -53 7 -77
-16 -23 -16 -22 -10 12 4 27 3 32 -5 20 -10 -13 -13 -12 -26 4 -25 33 -18 63
20 91 19 15 37 37 41 48 4 13 9 17 12 9 2 -7 -3 -24 -12 -37z m378 -14 c17
-11 34 -17 39 -14 4 3 6 -12 3 -34 l-6 -38 14 35 c8 19 15 29 15 22 1 -7 -5
-28 -13 -46 -8 -18 -13 -44 -11 -57 1 -16 1 -17 -2 -4 -6 25 -30 -36 -43 -113
-5 -29 -18 -66 -30 -82 l-20 -29 22 -7 c13 -4 29 -7 36 -6 21 5 13 -11 -25
-50 l-36 -37 26 -10 c15 -6 27 -15 27 -19 0 -10 -56 -22 -101 -22 -24 0 -27
-5 -38 -57 -6 -31 -11 -77 -11 -103 0 -27 -6 -54 -16 -66 -8 -10 -12 -13 -8
-5 10 20 28 178 27 241 -1 37 2 49 7 35 5 -11 9 -17 9 -13 1 4 15 2 32 -4 44
-15 48 -2 4 16 -40 17 -39 36 3 36 15 0 36 7 46 15 18 14 16 15 -26 15 -31 0
-46 4 -44 13 3 21 38 67 46 62 5 -3 12 0 16 6 4 8 3 9 -4 5 -18 -11 -15 26 5
53 9 14 12 22 7 18 -6 -3 -4 30 3 81 8 48 12 108 10 135 -2 26 -1 47 2 47 3 0
19 -9 35 -19z m-97 -26 c-2 -5 -14 -13 -28 -17 -16 -5 -12 -6 14 -2 l37 5 0
-45 c0 -78 -28 -181 -45 -164 -4 3 -15 39 -25 79 -18 69 -46 138 -62 149 -4 3
20 6 52 5 34 0 59 -4 57 -10z m-112 -140 c5 -13 5 -17 -2 -10 -14 14 -33 73
-32 99 0 12 6 1 13 -24 7 -25 17 -54 21 -65z m304 70 c1 30 4 36 11 25 14 -22
12 -71 -4 -89 -7 -9 -23 -47 -35 -86 -12 -38 -25 -77 -27 -85 -5 -12 -4 -12 4
-1 6 9 22 12 46 9 24 -3 33 -1 26 6 -15 15 -12 23 11 29 17 5 20 2 16 -14 -3
-10 -1 -22 4 -25 19 -11 9 -25 -13 -18 -45 14 -53 14 -28 2 35 -17 42 -32 22
-41 -12 -5 -8 -6 11 -4 32 5 31 7 12 -29 -8 -16 -11 -30 -6 -32 9 -3 5 -52 -5
-62 -10 -9 -104 -5 -104 5 1 22 28 44 61 48 l34 4 -40 2 c-38 2 -39 3 -15 13
l25 10 -28 10 c-32 11 -31 30 2 38 24 5 30 22 10 29 -7 2 -9 -1 -4 -9 6 -9 1
-10 -16 -4 -13 4 -30 7 -36 7 -7 0 -13 12 -14 26 0 24 -1 24 -9 6 -5 -13 -9
-14 -9 -5 0 22 17 59 19 40 3 -42 50 118 51 174 l1 61 13 -40 13 -40 1 40z
m-453 -19 c-4 -18 -14 -40 -24 -47 -15 -12 -15 -12 -6 1 6 8 15 32 18 54 4 21
10 36 13 32 3 -3 2 -21 -1 -40z m174 -26 c29 -72 34 -102 31 -182 -1 -42 2
-68 9 -68 5 0 10 -11 10 -25 0 -34 -18 -32 -26 3 -4 15 -24 64 -45 110 -24 50
-39 97 -39 120 l0 37 22 -35 c11 -19 32 -55 44 -79 15 -27 24 -37 24 -25 0 11
-7 29 -15 41 -9 12 -15 26 -14 30 1 4 1 15 0 23 -1 13 -3 13 -12 0 -9 -13 -10
-13 -6 1 3 9 -1 34 -8 55 -31 88 -9 82 25 -6z m-83 -92 c-2 -29 -3 -6 -3 52 0
58 1 81 3 53 2 -29 2 -77 0 -105z m298 7 c-4 -25 -9 -44 -12 -41 -2 2 -1 25 2
51 4 25 9 44 12 41 2 -2 1 -25 -2 -51z m-196 -247 c5 -21 5 -40 1 -43 -5 -3
-34 4 -65 16 -59 22 -68 34 -80 105 l-6 39 20 -43 c19 -40 57 -68 73 -53 4 3
-2 35 -12 70 -35 110 -24 127 21 32 22 -47 44 -102 48 -123z m-113 155 c-10
-10 -19 5 -10 18 6 11 8 11 12 0 2 -7 1 -15 -2 -18z m-16 -192 c0 -16 -7 -36
-15 -45 -9 -8 -16 -19 -15 -23 0 -4 -5 -8 -10 -8 -6 0 -15 -7 -21 -15 -6 -8
-9 -10 -7 -5 6 18 62 125 65 125 2 0 3 -13 3 -29z m121 -43 c-1 -7 -5 -40 -8
-73 -6 -72 -20 -115 -39 -115 -14 0 -134 57 -134 63 0 8 100 -11 113 -21 21
-18 27 -4 27 66 0 62 -1 66 -37 98 l-38 33 60 -19 c39 -12 59 -23 56 -32z
m172 0 c3 -18 8 -41 12 -50 5 -12 -2 -25 -21 -43 -20 -19 -23 -25 -10 -25 9 0
16 -5 16 -11 0 -11 -48 -33 -97 -44 l-33 -7 0 69 0 68 18 -35 c17 -36 46 -50
64 -32 7 7 -2 26 -26 58 -47 61 -46 72 7 77 23 2 47 4 53 5 6 1 14 -13 17 -30z
m-744 -77 c28 -58 25 -85 -9 -89 -13 -2 -29 -11 -35 -19 -22 -30 -58 -11 -88
45 l-28 52 63 29 c35 16 66 30 69 30 3 1 16 -21 28 -48z m1266 -15 c44 -38 48
-45 36 -60 -8 -10 -29 -16 -55 -16 l-41 -1 23 -18 c22 -19 22 -51 -1 -51 -5 0
-34 19 -64 41 -51 40 -53 43 -37 60 11 13 31 19 57 19 39 0 39 0 17 18 -14 11
-19 23 -15 35 11 26 26 21 80 -27z m-1194 -82 c12 -14 8 -21 -26 -49 l-39 -33
18 -27 c16 -24 16 -29 3 -42 -12 -13 -18 -10 -45 24 -17 22 -32 45 -34 51 -3
11 87 90 103 91 4 1 13 -6 20 -15z m634 -9 c-16 -8 -41 -14 -55 -14 -17 1 -11
5 20 14 59 17 73 17 35 0z m422 -11 c4 -10 -4 -24 -23 -40 -16 -13 -25 -23
-20 -24 5 0 18 7 28 16 15 14 20 15 34 3 15 -12 13 -15 -12 -36 -17 -13 -23
-23 -15 -23 8 0 24 9 36 20 20 19 23 19 36 4 14 -17 12 -19 -62 -74 l-27 -20
-43 56 -44 57 45 38 c50 43 58 46 67 23z m-337 -29 c-17 -45 -38 -81 -56 -96
-14 -11 -16 -11 -10 0 7 10 3 10 -15 -2 -13 -8 -35 -18 -49 -22 -22 -6 -22 -4
6 13 17 11 53 45 80 76 27 31 50 56 51 56 1 0 -2 -11 -7 -25z m-593 -70 l22
-15 -28 -68 c-28 -67 -46 -82 -62 -49 -5 9 -13 25 -17 34 -5 9 -18 17 -30 18
-22 2 -50 21 -41 29 6 5 123 65 129 66 3 0 15 -7 27 -15z m831 -7 c2 -9 -5
-19 -17 -23 -21 -6 -20 -7 4 -54 l24 -48 -23 -11 c-21 -9 -25 -6 -44 33 -18
37 -25 44 -49 42 -44 -3 -34 21 22 53 55 31 78 33 83 8z m-684 -79 c24 -19 35
-57 20 -72 -10 -10 -44 12 -44 28 0 7 -5 17 -10 20 -17 10 -41 -16 -38 -39 2
-16 10 -21 35 -21 39 0 50 -10 33 -30 -26 -31 -96 -11 -120 35 -12 22 2 69 27
88 25 18 67 15 97 -9z m551 -10 c0 -9 -11 -14 -32 -13 -18 1 -33 -2 -33 -7 0
-5 13 -9 29 -9 47 0 61 -10 61 -42 0 -24 -6 -32 -37 -45 -26 -10 -45 -13 -63
-6 -37 13 -32 38 7 38 17 0 35 3 39 8 4 4 -11 7 -34 7 -48 0 -70 25 -52 60 20
37 115 44 115 9z m-135 -26 c0 -10 3 -42 6 -70 7 -52 6 -53 -18 -53 -23 0 -26
5 -33 48 -3 26 -9 57 -12 70 -4 19 -1 22 26 22 23 0 31 -5 31 -17z"/>
<path d="M1240 1695 c-19 -14 -29 -25 -23 -25 12 0 73 49 62 50 -3 0 -20 -11
-39 -25z"/>
<path d="M1133 1663 c15 -2 37 -2 50 0 12 2 0 4 -28 4 -27 0 -38 -2 -22 -4z"/>
<path d="M1010 1635 c-21 -22 -22 -30 -17 -97 8 -90 23 -183 32 -198 12 -20
35 11 35 48 l0 35 24 -22 c14 -13 32 -39 41 -57 16 -34 29 -41 53 -26 10 7 10
20 1 60 -14 67 -22 67 -13 1 9 -65 -12 -65 -34 0 -10 30 -17 39 -23 30 -6 -10
-10 -9 -15 6 -5 11 -21 34 -37 50 -22 23 -26 25 -18 8 13 -26 15 -110 2 -117
-8 -5 -17 41 -37 197 -6 40 -3 53 15 78 26 35 23 38 -9 4z"/>
<path d="M1074 1494 c9 -8 16 -20 16 -26 0 -6 3 -9 6 -6 8 9 -14 48 -27 48 -6
0 -3 -7 5 -16z"/>
<path d="M1220 1600 c0 -5 5 -10 11 -10 5 0 7 5 4 10 -3 6 -8 10 -11 10 -2 0
-4 -4 -4 -10z"/>
<path d="M1665 1590 c6 -35 6 -35 -9 -10 -9 14 -15 20 -16 13 0 -7 10 -24 23
-39 31 -36 40 -13 15 36 l-18 35 5 -35z"/>
<path d="M1661 1514 c0 -11 3 -14 6 -6 3 7 2 16 -1 19 -3 4 -6 -2 -5 -13z"/>
<path d="M1631 1433 c-10 -26 -10 -27 4 -9 8 11 15 23 15 28 0 15 -7 8 -19
-19z"/>
<path d="M1564 1278 l-19 -23 23 19 c21 18 27 26 19 26 -2 0 -12 -10 -23 -22z"/>
<path d="M1488 1603 c7 -3 16 -2 19 1 4 3 -2 6 -13 5 -11 0 -14 -3 -6 -6z"/>
<path d="M1738 1233 c6 -2 18 -2 25 0 6 3 1 5 -13 5 -14 0 -19 -2 -12 -5z"/>
<path d="M870 993 c0 -4 5 -15 10 -23 8 -13 10 -13 10 2 0 9 -4 20 -10 23 -5
3 -10 3 -10 -2z"/>
<path d="M827 974 c-6 -10 9 -42 16 -34 3 3 1 14 -3 24 -3 11 -9 15 -13 10z"/>
<path d="M1055 740 c-3 -5 -1 -10 4 -10 6 0 11 5 11 10 0 6 -2 10 -4 10 -3 0
-8 -4 -11 -10z"/>
<path d="M597 1973 c-15 -14 -6 -33 22 -47 26 -14 30 -14 42 0 11 13 9 19 -11
35 -26 20 -42 23 -53 12z"/>
<path d="M2352 1962 c-15 -12 -21 -24 -16 -35 8 -21 8 -21 45 -1 19 9 29 21
27 32 -5 23 -29 25 -56 4z"/>
<path d="M693 1905 c-3 -9 -4 -18 -2 -20 3 -2 56 -33 119 -69 82 -47 117 -62
126 -55 7 6 11 16 8 22 -5 13 -217 137 -234 137 -6 0 -13 -7 -17 -15z"/>
<path d="M2168 1857 c-110 -64 -126 -78 -104 -96 17 -14 248 117 244 139 -6
28 -32 20 -140 -43z"/>
<path d="M490 1711 c0 -10 7 -22 16 -25 44 -17 82 6 49 31 -28 20 -65 17 -65
-6z"/>
<path d="M2445 1717 c-33 -25 5 -48 49 -31 9 3 16 15 16 25 0 23 -37 26 -65 6z"/>
<path d="M600 1681 c0 -27 105 -53 200 -49 l75 3 -121 33 c-140 37 -154 39
-154 13z"/>
<path d="M2240 1667 l-115 -32 75 -3 c95 -4 200 22 200 49 0 26 -22 24 -160
-14z"/>
<path d="M703 1568 c74 -130 72 -125 54 -161 -8 -17 -30 -56 -47 -84 l-30 -53
101 0 101 0 -8 38 c-11 47 -12 215 -1 265 l8 37 -101 0 -102 0 25 -42z"/>
<path d="M2127 1573 c11 -50 10 -218 -1 -265 l-8 -38 101 0 101 0 -30 53 c-17
28 -39 67 -47 84 -18 36 -20 31 54 161 l25 42 -102 0 -101 0 8 -37z"/>
<path d="M455 1460 c-10 -16 14 -40 40 -40 30 0 49 22 33 38 -15 15 -65 16
-73 2z"/>
<path d="M574 1455 c-3 -8 -3 -19 1 -25 7 -11 157 -14 168 -4 3 4 2 15 -4 25
-8 16 -22 19 -85 19 -56 0 -76 -4 -80 -15z"/>
<path d="M2260 1450 c-15 -27 -1 -32 91 -28 66 3 74 5 74 23 0 18 -8 20 -77
23 -69 3 -78 1 -88 -18z"/>
<path d="M2472 1458 c-16 -16 3 -38 33 -38 26 0 50 24 40 40 -8 14 -58 13 -73
-2z"/>
<path d="M613 1233 c-7 -2 -13 -13 -13 -24 0 -24 5 -24 115 5 l90 24 -90 0
c-49 0 -96 -2 -102 -5z"/>
<path d="M2285 1214 c109 -29 115 -29 115 -5 0 26 -19 31 -118 30 l-87 -1 90
-24z"/>
<path d="M497 1203 c-4 -3 -7 -15 -7 -26 0 -17 5 -19 32 -13 38 7 53 20 44 35
-8 12 -59 15 -69 4z"/>
<path d="M2435 1200 c-10 -16 5 -28 44 -36 30 -6 33 -5 29 17 -2 19 -10 25
-35 27 -17 2 -34 -2 -38 -8z"/>
</g>
</svg>
